<svg xmlns="http://www.w3.org/2000/svg" width="60" height="39" fill="none"><path fill="#F1F1F1" fill-rule="evenodd" d="M59.369 0c.345 0 .631.282.631.63v37.744a.633.633 0 0 1-.631.626h-8.13a.63.63 0 0 1-.631-.626V.63A.63.63 0 0 1 51.239 0h8.13ZM24.093 0c6.132 0 12.544.286 15.705 3.505 3.111 3.169 3.447 9.476 3.46 15.602v19.267a.63.63 0 0 1-.632.626H34.5a.632.632 0 0 1-.633-.626V18.775c-.009-3.421-.202-6.937-1.936-8.707-1.493-1.523-4.279-1.872-7.175-1.945H10.023a.63.63 0 0 0-.63.626v29.625a.633.633 0 0 1-.632.626H.628A.629.629 0 0 1 0 38.374V.63C0 .282.28 0 .628 0h23.465Zm1.82 15.032c.345 0 .625.282.625.626v22.716c0 .342-.28.626-.625.626h-8.54a.631.631 0 0 1-.632-.626V15.657a.63.63 0 0 1 .633-.625h8.539Z" clip-rule="evenodd"/></svg>