<svg xmlns="http://www.w3.org/2000/svg" width="60" height="37" fill="none"><path fill="#FF4C0D" fill-rule="evenodd" d="M59.369.195c.345 0 .631.265.631.592V36.28c0 .322-.286.588-.631.588h-8.13c-.349 0-.631-.267-.631-.588V.787c0-.327.282-.592.631-.592h8.13Zm-35.276 0c6.132 0 12.544.269 15.705 3.296 3.111 2.98 3.447 8.911 3.46 14.67V36.28c0 .322-.283.588-.632.588H34.5c-.348 0-.633-.267-.633-.588V17.85c-.009-3.217-.202-6.523-1.936-8.188-1.493-1.431-4.279-1.76-7.175-1.828H10.023c-.347 0-.63.267-.63.588V36.28c0 .322-.285.588-.632.588H.628c-.347 0-.628-.267-.628-.588V.787C0 .46.28.195.628.195h23.465Zm1.82 14.135c.345 0 .625.265.625.589v21.36c0 .322-.28.59-.625.59h-8.54c-.35 0-.632-.267-.632-.59V14.92c0-.324.282-.589.633-.589h8.539Z" clip-rule="evenodd"/></svg>