<svg xmlns="http://www.w3.org/2000/svg" width="50" height="30" fill="none"><path fill="#FF4C0D" fill-rule="evenodd" d="M48.566.833c.282 0 .516.208.516.463v27.78c0 .252-.234.46-.516.46h-6.65c-.286 0-.517-.209-.517-.46V1.296c0-.255.231-.463.517-.463h6.65Zm-28.857 0c5.017 0 10.261.21 12.847 2.58 2.545 2.332 2.82 6.974 2.83 11.482v14.18c0 .253-.23.461-.516.461h-6.647c-.286 0-.518-.209-.518-.46V14.65c-.007-2.518-.165-5.106-1.584-6.408-1.221-1.12-3.5-1.378-5.87-1.431H8.2c-.283 0-.514.209-.514.46v21.804c0 .252-.234.46-.518.46H.513c-.283 0-.513-.209-.513-.46V1.296C0 1.041.23.833.513.833H19.71Zm1.489 11.063c.282 0 .512.208.512.46v16.72c0 .252-.23.46-.512.46h-6.986c-.286 0-.518-.209-.518-.46v-16.72c0-.252.232-.46.518-.46h6.986Z" clip-rule="evenodd"/></svg>